<svg width="220" height="220" viewBox="0 0 220 220" fill="none" xmlns="http://www.w3.org/2000/svg">
<circle cx="110" cy="110" r="110" fill="white"/>
<path d="M24.2296 174.729L24.9988 87.6162L111.181 30.7772L195.625 89.1228L194.856 176.236" stroke="black" stroke-width="3"/>
<path d="M46.3563 173.227L46.4078 139.749M74.5194 118.553L46.4078 139.749M74.5194 118.553L102.565 139.835M74.5194 118.553L74.546 101.274M46.4078 139.749L74.4528 161.751M46.4078 139.749L46.4358 121.57M74.4351 173.271L74.4528 161.751M74.4528 161.751L102.565 139.835M102.565 139.835L102.529 163.234M46.4358 121.57L46.4638 103.39L74.5759 81.8345L74.546 101.274M46.4358 121.57L74.546 101.274" stroke="black" stroke-width="3"/>
<path d="M89.7727 177.028L142.913 120.818L176.727 136.709M176.727 136.709L176.665 177.028M176.727 136.709L140.273 177.028" stroke="black" stroke-width="3"/>
<path d="M112.731 84.053L112.774 55.9741L140.828 72.5767L140.786 99.9355L112.731 84.053Z" stroke="black" stroke-width="3"/>
<path d="M148.697 105.708L148.74 77.6289L176.795 92.7915L176.751 121.59L148.697 105.708Z" stroke="black" stroke-width="3"/>
<rect x="21.7876" y="168" width="175.009" height="9.82107" transform="rotate(0.0882376 21.7876 168)" fill="white"/>
</svg>
