<svg width="262" height="145" viewBox="0 0 262 145" fill="none" xmlns="http://www.w3.org/2000/svg">
<path d="M9.28125 137.344C7.66667 137.344 6.26042 136.984 5.0625 136.266C3.86458 135.547 2.94271 134.531 2.29688 133.219C1.66146 131.906 1.34375 130.385 1.34375 128.656C1.34375 126.927 1.66146 125.396 2.29688 124.062C2.94271 122.719 3.84375 121.677 5 120.938C6.16667 120.188 7.51042 119.812 9.03125 119.812C10.3125 119.812 11.5052 120.099 12.6094 120.672C13.7135 121.234 14.6094 122.151 15.2969 123.422C15.9948 124.682 16.3438 126.302 16.3438 128.281V129.406H4.03125C4.07292 130.583 4.31771 131.589 4.76562 132.422C5.21354 133.255 5.82292 133.891 6.59375 134.328C7.375 134.755 8.27083 134.969 9.28125 134.969C10.2396 134.969 11.0469 134.792 11.7031 134.438C12.3698 134.073 12.875 133.604 13.2188 133.031H16.0938C15.8229 133.885 15.3698 134.641 14.7344 135.297C14.1094 135.943 13.3281 136.448 12.3906 136.812C11.4635 137.167 10.4271 137.344 9.28125 137.344ZM13.625 127.125C13.625 126.177 13.4323 125.333 13.0469 124.594C12.6719 123.844 12.1354 123.255 11.4375 122.828C10.7396 122.401 9.9375 122.188 9.03125 122.188C8.08333 122.188 7.23958 122.411 6.5 122.859C5.77083 123.307 5.19271 123.911 4.76562 124.672C4.34896 125.422 4.10938 126.24 4.04688 127.125H13.625ZM45.8188 123.969H20.4125V121.969H28.2719C28.9385 119.531 29.2927 117.167 29.3344 114.875H22.6313V112.844H31.7563V113.781C31.7563 114.99 31.699 116.24 31.5844 117.531C31.4698 118.823 31.199 120.302 30.7719 121.969H39.2563C39.8604 119.562 40.1833 117.198 40.225 114.875H33.6625V112.844H42.6V113.812C42.5792 114.75 42.5531 115.542 42.5219 116.188C42.4906 116.823 42.4125 117.656 42.2875 118.688C42.1729 119.708 41.9854 120.802 41.725 121.969H45.8188V123.969ZM42.5688 133.781H25.975V137.188H43.475V139.156H23.5063V131.906H40.1V128.875H23.4438V126.906H42.5688V133.781ZM72.6063 128.25H70.1688V111.781H72.6063V128.25ZM63.7625 121H53.5125V124.844H54.6375C56.9708 124.844 59.0646 124.781 60.9188 124.656C62.7833 124.531 64.7104 124.302 66.7 123.969L66.9813 126.031C64.7729 126.375 62.6427 126.609 60.5906 126.734C58.549 126.849 56.1479 126.906 53.3875 126.906H51.1375V119.062H61.325V115.438H51.075V113.469H63.7625V121ZM72.6063 139.156H54.5438V129.75H72.6063V139.156ZM56.95 137.156H70.2V131.75H56.95V137.156ZM111.494 132.094H109.056V111.781H111.494V132.094ZM112.369 138.938H93.5563V130.031H95.9938V136.875H112.369V138.938ZM96.4938 113.719C97.8688 113.719 99.1083 114.01 100.213 114.594C101.327 115.167 102.197 115.974 102.822 117.016C103.457 118.047 103.775 119.219 103.775 120.531C103.775 121.865 103.457 123.052 102.822 124.094C102.197 125.125 101.327 125.932 100.213 126.516C99.1083 127.089 97.8688 127.375 96.4938 127.375C95.1188 127.375 93.874 127.089 92.7594 126.516C91.6552 125.932 90.7854 125.125 90.15 124.094C89.525 123.052 89.2125 121.865 89.2125 120.531C89.2125 119.219 89.525 118.047 90.15 117.016C90.7854 115.974 91.6552 115.167 92.7594 114.594C93.874 114.01 95.1188 113.719 96.4938 113.719ZM96.4938 115.875C95.5667 115.875 94.7281 116.073 93.9781 116.469C93.2385 116.865 92.6552 117.417 92.2281 118.125C91.8115 118.833 91.6083 119.635 91.6188 120.531C91.6083 121.438 91.8115 122.25 92.2281 122.969C92.6552 123.677 93.2385 124.229 93.9781 124.625C94.7281 125.021 95.5667 125.219 96.4938 125.219C97.4 125.219 98.2229 125.021 98.9625 124.625C99.7125 124.229 100.301 123.677 100.728 122.969C101.155 122.25 101.369 121.438 101.369 120.531C101.369 119.646 101.155 118.849 100.728 118.141C100.301 117.432 99.7125 116.88 98.9625 116.484C98.2229 116.078 97.4 115.875 96.4938 115.875ZM129.25 117.125H121.25V122.625H127.969V124.594H121.25V130.844C123.354 130.823 125.089 130.76 126.453 130.656C127.828 130.552 129.24 130.365 130.688 130.094L130.906 132.094C129.417 132.396 127.964 132.594 126.547 132.688C125.13 132.771 123.167 132.823 120.656 132.844H118.906V115.156H129.25V117.125ZM141.594 139.531H139.219V111.75H141.594V139.531ZM135.906 138.094H133.562V124.344H129.469V122.312H133.562V112.438H135.906V138.094ZM170.006 139.594H167.569V111.75H170.006V139.594ZM161.569 124.219H151.194V130.781C153.683 130.781 155.996 130.708 158.131 130.562C160.277 130.417 162.527 130.156 164.881 129.781L165.131 131.844C162.725 132.229 160.423 132.495 158.225 132.641C156.027 132.776 153.621 132.844 151.006 132.844H148.694V122.219H159.1V116.375H148.631V114.344H161.569V124.219ZM183.794 113.906C185.044 113.917 186.164 114.266 187.153 114.953C188.153 115.641 188.96 116.62 189.575 117.891C190.19 119.161 190.559 120.656 190.684 122.375H196.919V111.75H199.356V139.594H196.919V124.406H190.716C190.622 126.198 190.273 127.76 189.669 129.094C189.065 130.427 188.252 131.453 187.231 132.172C186.221 132.891 185.075 133.25 183.794 133.25C182.44 133.25 181.231 132.854 180.169 132.062C179.117 131.271 178.294 130.146 177.7 128.688C177.117 127.229 176.825 125.531 176.825 123.594C176.825 121.656 177.117 119.958 177.7 118.5C178.294 117.042 179.117 115.917 180.169 115.125C181.221 114.323 182.429 113.917 183.794 113.906ZM183.794 116.094C182.887 116.104 182.08 116.422 181.372 117.047C180.674 117.661 180.132 118.536 179.747 119.672C179.361 120.797 179.169 122.104 179.169 123.594C179.169 125.083 179.361 126.396 179.747 127.531C180.132 128.656 180.674 129.526 181.372 130.141C182.08 130.755 182.887 131.062 183.794 131.062C184.69 131.062 185.486 130.755 186.184 130.141C186.893 129.526 187.44 128.656 187.825 127.531C188.221 126.396 188.419 125.083 188.419 123.594C188.419 122.104 188.221 120.797 187.825 119.672C187.44 118.536 186.898 117.661 186.2 117.047C185.502 116.422 184.7 116.104 183.794 116.094ZM228.55 126.188H226.081V111.75H228.55V126.188ZM228.55 134.156H212.863V137.219H229.613V139.219H210.456V132.312H226.113V129.5H210.363V127.531H228.55V134.156ZM221.863 115.625H219.05V122.734C220.352 122.651 221.748 122.521 223.238 122.344L223.363 124.156C220.81 124.531 218.05 124.797 215.081 124.953C212.123 125.109 209.217 125.188 206.363 125.188L206.05 123.156L209.613 123.125V115.625H206.831V113.656H221.863V115.625ZM211.988 123.078C214.092 123.016 215.654 122.953 216.675 122.891V115.625H211.988V123.078ZM260.244 128.125H234.806V126.094H260.244V128.125ZM256.962 119H240.556V121.781H257.556V123.688H238.119V117.156H254.494V114.406H238.025V112.438H256.962V119ZM256.962 139.156H238.275V130.656H256.962V139.156ZM240.681 137.156H254.556V132.656H240.681V137.156Z" fill="black"/>
<path d="M69 103V42.5L128.5 2.5L187.5 42.5V103" stroke="black" stroke-width="3"/>
<path d="M84 101.5V78.25M103.5 63.5L84 78.25M103.5 63.5L123 78.25M103.5 63.5V51.5M84 78.25L103.5 93.5M84 78.25V65.625M103.5 101.5V93.5M103.5 93.5L123 78.25M123 78.25V94.5M84 65.625V53L103.5 38V51.5M84 65.625L103.5 51.5" stroke="black" stroke-width="3"/>
<path d="M108.5 108.5L151 65L174.5 76M174.5 76V104M174.5 76L147.5 106.5" stroke="black" stroke-width="3"/>
<path d="M130 39.5V20L149.5 31.5V50.5L130 39.5Z" stroke="black" stroke-width="3"/>
<path d="M155 54.5V35L174.5 45.5V65.5L155 54.5Z" stroke="black" stroke-width="3"/>
<rect x="60" y="102" width="136" height="11" fill="white"/>
</svg>
